<svg xmlns='http://www.w3.org/2000/svg' viewBox='40 40 240 240'><g transform='translate(160 160) scale(0.72) translate(-160 -157)'><g transform="rotate(-18 160 150)"><path d="M70 150 A90 26 0 0 1 250 150" fill="none" stroke="#FF7A1A" stroke-width="4"/></g><polygon points="160,62 152,150 168,150" fill="#FFB03A" opacity="0.85"/><polygon points="160,212 152,150 168,150" fill="#FFB03A" opacity="0.85"/><circle cx="160" cy="150" r="40" fill="#FF7A1A"/><circle cx="160" cy="150" r="28" fill="#FFB03A"/><circle cx="160" cy="150" r="14" fill="#FFF1C9"/><g transform="rotate(-18 160 150)"><path d="M70 150 A90 26 0 0 0 250 150" fill="none" stroke="#FF7A1A" stroke-width="4"/></g><path d="M105 217 L215 217 L200 228 L182 228 L188 244 L200 252 L120 252 L132 244 L138 228 L120 228 Z" fill="#2B2F4A"/><rect x="105" y="214" width="110" height="4" fill="#FFB03A"/></g></svg>
